<?xml version="1.0" encoding="UTF-8" standalone="no"?>
<svg
   xmlns:dc="http://purl.org/dc/elements/1.1/"
   xmlns:cc="http://creativecommons.org/ns#"
   xmlns:rdf="http://www.w3.org/1999/02/22-rdf-syntax-ns#"
   xmlns:svg="http://www.w3.org/2000/svg"
   xmlns="http://www.w3.org/2000/svg"
   id="svg8"
   version="1.1"
   viewBox="0 0 8.8371878 8.8371878"
   height="8.8371878mm"
   width="8.8371878mm">
  <defs
     id="defs2" />
  <metadata
     id="metadata5">
    <rdf:RDF>
      <cc:Work
         rdf:about="">
        <dc:format>image/svg+xml</dc:format>
        <dc:type
           rdf:resource="http://purl.org/dc/dcmitype/StillImage" />
        <dc:title></dc:title>
      </cc:Work>
    </rdf:RDF>
  </metadata>
  <rect
     y="0.20253822"
     x="0.20253873"
     height="8.4321156"
     width="8.4321156"
     id="rect825"
     style="opacity:1;fill:#ffffff;fill-opacity:1;fill-rule:nonzero;stroke:#000000;stroke-width:0.3000375;stroke-linecap:round;stroke-linejoin:miter;stroke-miterlimit:4;stroke-dasharray:none;stroke-dashoffset:0;stroke-opacity:1;paint-order:normal" />
  <g
     aria-label="TB"
     style="color:#000000;font-style:normal;font-variant:normal;font-weight:bold;font-stretch:normal;font-size:6.3499999px;line-height:125%;font-family:FFScalaSans;-inkscape-font-specification:'FFScalaSans Bold';font-variant-ligatures:normal;font-variant-caps:normal;font-variant-numeric:normal;text-indent:0;text-align:center;text-decoration:none;text-decoration-line:none;letter-spacing:0px;word-spacing:0px;text-transform:none;writing-mode:lr-tb;direction:ltr;text-anchor:middle;display:inline;overflow:visible;visibility:visible;opacity:1;fill:#000000;fill-opacity:1;fill-rule:nonzero;stroke:none;stroke-width:0.26458332;stroke-linecap:butt;stroke-linejoin:miter;stroke-miterlimit:4;stroke-dasharray:none;stroke-dashoffset:0;stroke-opacity:1;marker:none;marker-start:none;marker-mid:none;marker-end:none;enable-background:accumulate"
     id="text12"
     transform="translate(-51.336349,-98.090454)">
    <path
       d="m 55.615247,101.093 v -0.67945 h -3.3147 v 0.67945 h 1.2573 v 3.51155 h 0.8001 V 101.093 Z"
       style="font-style:normal;font-variant:normal;font-weight:bold;font-stretch:normal;font-family:FFScalaSans;-inkscape-font-specification:'FFScalaSans Bold';fill:#000000;stroke-width:0.26458332"
       id="path849" />
    <path
       d="m 59.209344,103.48695 c 0,-0.65405 -0.40005,-1.0668 -1.03505,-1.0795 0.3302,-0.019 0.50165,-0.0952 0.6858,-0.3048 0.1524,-0.1778 0.2413,-0.42545 0.2413,-0.6604 0,-0.27305 -0.127,-0.5715 -0.3302,-0.7493 -0.2286,-0.20955 -0.50165,-0.2794 -1.04775,-0.2794 h -1.51765 v 4.191 h 1.70815 c 0.8382,0 1.2954,-0.3937 1.2954,-1.1176 z m -0.99695,-1.905 c 0,0.3556 -0.2413,0.5461 -0.69215,0.5461 h -0.47625 v -1.0795 h 0.5207 c 0.4064,0 0.6477,0.19685 0.6477,0.5334 z m 0.12065,1.8161 c 0,0.2159 -0.10795,0.40005 -0.28575,0.48895 -0.12065,0.0571 -0.23495,0.0762 -0.4826,0.0762 h -0.5207 v -1.1557 h 0.5207 c 0.4953,0 0.76835,0.20955 0.76835,0.59055 z"
       style="font-style:normal;font-variant:normal;font-weight:bold;font-stretch:normal;font-family:FFScalaSans;-inkscape-font-specification:'FFScalaSans Bold';fill:#000000;stroke-width:0.26458332"
       id="path851" />
  </g>
</svg>
